<svg id="Layer_1" data-name="Layer 1" xmlns="http://www.w3.org/2000/svg" viewBox="0 0 800 600"><defs><style>.cls-1{fill:#fff;}.cls-2{fill:#47484d;}.cls-3{fill:#f47d20;}.cls-4{fill:#676868;opacity:0.8;}</style></defs><title>Aaivu</title><rect class="cls-1" width="800" height="600"/><path class="cls-2" d="M512.44,295.88a9.92,9.92,0,0,0-9.34,6.71l-25.16,72.18L456.88,315c15.14-26.07,11.72-62.61-18.79-86.06a50.06,50.06,0,0,0-11-6.27c-46.68-19-91.65,15.37-91.65,59.77a66,66,0,0,0,1.71,15,55.08,55.08,0,0,0-17-2.39c-15.26,0-24.82,2.85-35.29,8.2a8.66,8.66,0,0,0-3.3,12.06,8.54,8.54,0,0,0,7.28,4.33,7.51,7.51,0,0,0,3.76-1c7.74-4,15.37-6,22.88-6,15.83,0,23.91,7.52,23.91,20.15v3H309.11c-24.14.23-37.91,12-37.91,30.17,0,17.76,13.54,31.08,35.17,31.08,14.58,0,26.08-4.32,33.25-13.2v1.7a10.59,10.59,0,0,0,21.17.23v-5.24l-.11-36V323.2c-.23-.23-.57-.46-.8-.68l-.11-.12c-.57-.57-1.14-1.14-1.6-1.7a45.53,45.53,0,0,1-3.41-4.1A51.48,51.48,0,0,1,346.9,302a54.2,54.2,0,0,1-3.53-19.58c0-40.3,41.9-70.92,84.48-50.77a47.23,47.23,0,0,1,18.67,16.05c12.86,19,13.89,39.73,6.6,56.92a54.38,54.38,0,0,1-14.46,20.27l1.48,4,22,56.7a16.36,16.36,0,0,0,30.52,0l29.14-76.17A10,10,0,0,0,512.44,295.88ZM339.39,360.77c-1.14,10.93-13,19.13-28.46,19.13-12.07,0-19.36-5.92-19.36-14.92,0-9.68,6.61-13.43,20.72-13.43h27.1Z"/><path class="cls-2" d="M633,306.68v78.53A10.82,10.82,0,0,1,622.21,396h0a10.82,10.82,0,0,1-10.83-10.82v-8.76c-6.77,13.94-19.39,20.15-35.77,20.34-23,0-36.72-14.69-36.72-38.61v-51.5a10.83,10.83,0,0,1,10.83-10.83h0a10.83,10.83,0,0,1,10.82,10.83v45.48c0,15.06,8.85,24.29,23.35,24.29,17.33-.38,27.49-13.75,27.49-31.26V306.68a10.83,10.83,0,0,1,10.83-10.83h0A10.83,10.83,0,0,1,633,306.68Z"/><path class="cls-2" d="M404.51,356.22h6.72v29a10.71,10.71,0,1,1-21.41,0v-29h6.72v-8.77a63.56,63.56,0,0,1-23.57-6v-8.88a58.11,58.11,0,0,0,46.45,3.87l2.74,7.51a66.41,66.41,0,0,1-17.65,3.53Z"/><path class="cls-3" d="M486.13,246.61h0a1.29,1.29,0,0,1-1.28,1.28h-4.12a1.28,1.28,0,0,0-1.28,1.27v4.12a1.27,1.27,0,0,1-1.27,1.28h0a1.28,1.28,0,0,1-1.28-1.28v-4.12a1.27,1.27,0,0,0-1.27-1.27h-4.12a1.28,1.28,0,0,1-1.28-1.28h0a1.28,1.28,0,0,1,1.28-1.28h4.12a1.27,1.27,0,0,0,1.27-1.27v-4.12a1.28,1.28,0,0,1,1.28-1.28h0a1.27,1.27,0,0,1,1.27,1.28v4.12a1.28,1.28,0,0,0,1.28,1.27h4.12A1.29,1.29,0,0,1,486.13,246.61Z"/><path class="cls-2" d="M486.13,263.9h0a.75.75,0,0,1-.75.74H483a.75.75,0,0,0-.75.75v2.4a.74.74,0,0,1-.74.74h0a.75.75,0,0,1-.75-.74v-2.4a.74.74,0,0,0-.74-.75h-2.4a.75.75,0,0,1-.75-.74h0a.76.76,0,0,1,.75-.75H480a.74.74,0,0,0,.74-.74V260a.75.75,0,0,1,.75-.74h0a.74.74,0,0,1,.74.74v2.41a.75.75,0,0,0,.75.74h2.4A.76.76,0,0,1,486.13,263.9Z"/><path class="cls-4" d="M505.53,255.86h0a1.29,1.29,0,0,1-1.29,1.29h-4.17a1.29,1.29,0,0,0-1.29,1.29v4.17a1.29,1.29,0,0,1-1.29,1.29h0a1.29,1.29,0,0,1-1.29-1.29v-4.17a1.29,1.29,0,0,0-1.29-1.29h-4.16a1.29,1.29,0,0,1-1.29-1.29h0a1.29,1.29,0,0,1,1.29-1.29h4.16a1.29,1.29,0,0,0,1.29-1.29v-4.16a1.29,1.29,0,0,1,1.29-1.29h0a1.29,1.29,0,0,1,1.29,1.29v4.16a1.29,1.29,0,0,0,1.29,1.29h4.17A1.29,1.29,0,0,1,505.53,255.86Z"/><path class="cls-2" d="M235,385.43v-1.62c-7.15,8.85-18.64,13.18-33.13,13.18-21.65,0-35.21-13.37-35.21-31.06,0-18.27,13.74-29.94,37.84-30.13h30.32v-3c0-12.62-8.1-20.15-23.92-20.15a48.74,48.74,0,0,0-22.6,6,8.58,8.58,0,0,1-11.35-3.31h0a8.6,8.6,0,0,1,3.43-12c10.39-5.39,20-8.19,35.23-8.19,25.8,0,40.29,13.18,40.48,35.21l.16,55.06a10.62,10.62,0,0,1-10.62,10.65h0A10.63,10.63,0,0,1,235,385.43Zm-.18-24.59v-9.22H207.69c-14.12,0-20.71,3.76-20.71,13.36,0,9,7.35,14.88,19.4,14.88C221.81,379.86,233.68,371.76,234.81,360.84Z"/><path class="cls-3" d="M444.57,280.46v-.38a43.2,43.2,0,0,0-6.82-22.34s0,0,0,0a43.16,43.16,0,0,0-4.85-6.53A42.13,42.13,0,0,0,403,237.08a45.78,45.78,0,0,0-17.13,2.65,45.29,45.29,0,0,0-15.18,9.07c-1.06,1-2.12,2.11-3.16,3.2s-1.93,2.31-2.83,3.52-1.67,2.52-2.44,3.82-1.44,2.67-2,4.06-1.13,2.83-1.59,4.27-.86,2.92-1.15,4.41-.48,3-.65,4.52l-.22,4.54a44.74,44.74,0,0,0,14.2,32.22,43.79,43.79,0,0,0,70.72-16.23c.12-.3.24-.62.35-.92,0-.07.05-.14.07-.21a43.25,43.25,0,0,0,2.64-14.91C444.58,280.88,444.58,280.66,444.57,280.46Zm-13,29.3a39.52,39.52,0,0,1-13.38,8.12,38.47,38.47,0,0,1-41.43-10.43,38.41,38.41,0,0,1-9.94-26.31A40.7,40.7,0,0,1,376.87,255,36.65,36.65,0,0,1,403,242.36a40.28,40.28,0,0,1,15.1,2.26,39.85,39.85,0,0,1,13.42,7.94,38.22,38.22,0,0,1,9.32,12.88c.37,1,.77,1.95,1.14,2.95a35.23,35.23,0,0,0-6.4-10.51,32.64,32.64,0,0,0-23.22-11.17,35.94,35.94,0,0,0-25.39,9c-.83.83-1.67,1.65-2.49,2.5s-1.54,1.81-2.25,2.76-1.32,2-1.93,3-1.14,2.09-1.63,3.19a33.88,33.88,0,0,0-2.84,14A35.62,35.62,0,0,0,378.87,295a34.59,34.59,0,0,0,20.05,18.57,34.21,34.21,0,0,0,36.62-9.23,33.78,33.78,0,0,0,5.21-7.55A39.1,39.1,0,0,1,431.56,309.76Zm2.78-6.6a29.61,29.61,0,0,1-22,7.7A29.37,29.37,0,0,1,385,281.13a31.43,31.43,0,0,1,7.52-19.85,28.17,28.17,0,0,1,8.76-6.88,27.67,27.67,0,0,1,11-2.91,31,31,0,0,1,22,7.64,29,29,0,0,1,7.25,9.88l.36.9a28.13,28.13,0,0,0-3.72-6,24.49,24.49,0,0,0-7.5-6.16,24.12,24.12,0,0,0-9.66-2.73,27.83,27.83,0,0,0-19.69,6.38,25.28,25.28,0,0,0-6.65,8.77,25.58,25.58,0,0,0-2.25,10.92A27.15,27.15,0,0,0,395,292a26.54,26.54,0,0,0,6.52,8.75,25.86,25.86,0,0,0,36.67-2.44,24.89,24.89,0,0,0,2.78-3.89A30.11,30.11,0,0,1,434.34,303.16Zm2.48-6.22A20.4,20.4,0,0,1,421,301.81a20.29,20.29,0,0,1-13.31-7.32,20.05,20.05,0,0,1-4.57-13.36,23.18,23.18,0,0,1,4.68-13.23,18.49,18.49,0,0,1,13.2-7.31,22.11,22.11,0,0,1,15.71,4.79,20.26,20.26,0,0,1,5.45,7c.2.42.38.85.54,1.27a18.85,18.85,0,0,0-2.13-3.59,15.56,15.56,0,0,0-11.08-6.16,18.81,18.81,0,0,0-13.3,3.94,16.45,16.45,0,0,0-6.18,13.31,17.93,17.93,0,0,0,6.28,13.2,17.06,17.06,0,0,0,25.5-3.87A20.63,20.63,0,0,1,436.82,296.94Zm2.53-6a12.36,12.36,0,0,1-4.77,2.4,12.52,12.52,0,0,1-5.05.19,12.08,12.08,0,0,1-10-12.42,15.19,15.19,0,0,1,2.44-7.59,10.59,10.59,0,0,1,7.55-4.74,13.75,13.75,0,0,1,9.79,2.52,13.12,13.12,0,0,1,1.14,1,8.26,8.26,0,0,0-3.84-1.34,10,10,0,0,0-7,2.11,8.81,8.81,0,0,0-3.22,7,9.51,9.51,0,0,0,3.26,7,9.18,9.18,0,0,0,7,2.15,9,9,0,0,0,5.91-3.21,8.7,8.7,0,0,0,1.13-1.77A12.86,12.86,0,0,1,439.35,291Zm2.19-5.95a6.17,6.17,0,0,1-4.92,1.29,6,6,0,0,1-3.85-2.35,6,6,0,0,1-1.2-3.86,7.68,7.68,0,0,1,1.24-3.84,5.32,5.32,0,0,1,3.81-2.39,7,7,0,0,1,5,1.25,6,6,0,0,1,2.4,5A6.65,6.65,0,0,1,441.54,285Z"/></svg>