<svg id="Layer_1" data-name="Layer 1" xmlns="http://www.w3.org/2000/svg" viewBox="0 0 466.58 215.19"><defs><style>.cls-1{fill:#f27c21;}.cls-2{fill:#48494f;}.cls-3{fill:#696a6a;opacity:0.8;}</style></defs><title>Aaivu-academy</title><path class="cls-1" d="M444.49,263.18v-.39a43.17,43.17,0,0,0-6.82-22.35s0,0,0,0a44.28,44.28,0,0,0-4.85-6.52,42.72,42.72,0,0,0-13.37-10.05,42.11,42.11,0,0,0-16.54-4.07,45.88,45.88,0,0,0-17.15,2.65,45.38,45.38,0,0,0-15.18,9.07c-1.05,1.06-2.12,2.11-3.16,3.21s-1.93,2.3-2.83,3.52-1.67,2.52-2.44,3.82-1.44,2.67-2,4.06-1.13,2.83-1.6,4.27-.85,2.92-1.14,4.42-.48,3-.65,4.51l-.23,4.55a44.8,44.8,0,0,0,14.21,32.23,43.79,43.79,0,0,0,70.75-16.24c.13-.3.24-.61.35-.92,0-.07,0-.13.07-.2a43.12,43.12,0,0,0,2.64-14.92C444.5,263.59,444.5,263.38,444.49,263.18Zm-13,29.31a39.56,39.56,0,0,1-13.39,8.12,38.48,38.48,0,0,1-51.39-36.75,40.77,40.77,0,0,1,10.06-26.2,37.51,37.51,0,0,1,11.62-8.92,37,37,0,0,1,14.52-3.68,40.25,40.25,0,0,1,28.53,10.21,38.12,38.12,0,0,1,9.32,12.88c.37,1,.78,2,1.14,2.95a35.23,35.23,0,0,0-6.4-10.51,32.75,32.75,0,0,0-23.23-11.18,36,36,0,0,0-25.4,9c-.83.84-1.67,1.66-2.5,2.51s-1.53,1.81-2.24,2.76-1.32,2-1.94,3-1.13,2.09-1.62,3.18a33.8,33.8,0,0,0-2.84,14,35.61,35.61,0,0,0,3,13.88,34.6,34.6,0,0,0,20.07,18.58,34.22,34.22,0,0,0,36.63-9.23,33.78,33.78,0,0,0,5.21-7.55A39.2,39.2,0,0,1,431.48,292.49Zm2.78-6.61A30.12,30.12,0,0,1,423.92,292a29.36,29.36,0,0,1-31.57-8.24,29.3,29.3,0,0,1-7.42-19.95A31.38,31.38,0,0,1,392.45,244a27.79,27.79,0,0,1,19.81-9.8,31,31,0,0,1,22,7.64,29.27,29.27,0,0,1,7.26,9.89c.11.3.23.6.35.9a27.42,27.42,0,0,0-3.72-6A24,24,0,0,0,421,237.76a27.93,27.93,0,0,0-19.7,6.39,25.19,25.19,0,0,0-8.9,19.7,27.32,27.32,0,0,0,2.5,10.83,26.58,26.58,0,0,0,6.52,8.76,25.86,25.86,0,0,0,39.48-6.34A30.19,30.19,0,0,1,434.26,285.88Zm2.48-6.22a20.33,20.33,0,0,1-29.1-2.44,20.1,20.1,0,0,1-4.57-13.37,23.07,23.07,0,0,1,4.68-13.24A18.53,18.53,0,0,1,421,243.3a22.09,22.09,0,0,1,15.72,4.8,20,20,0,0,1,5.45,7c.2.42.38.84.54,1.27a18.25,18.25,0,0,0-2.13-3.59,15.52,15.52,0,0,0-11.08-6.17,18.82,18.82,0,0,0-13.31,3.94A16.48,16.48,0,0,0,410,263.84a17.92,17.92,0,0,0,6.28,13.2,17.05,17.05,0,0,0,6.33,3.41,17.37,17.37,0,0,0,6.88.54,17.16,17.16,0,0,0,11.05-6.09,18.31,18.31,0,0,0,1.25-1.72A20.59,20.59,0,0,1,436.74,279.66Zm2.53-6a12.22,12.22,0,0,1-9.82,2.59,12.1,12.1,0,0,1-10-12.42,15.07,15.07,0,0,1,2.45-7.59,10.51,10.51,0,0,1,7.55-4.74,13.69,13.69,0,0,1,9.79,2.51,13.24,13.24,0,0,1,1.14,1,8.15,8.15,0,0,0-3.84-1.34,10,10,0,0,0-7,2.11,8.78,8.78,0,0,0-3.23,7,9.52,9.52,0,0,0,3.27,7,9.18,9.18,0,0,0,7,2.15,9,9,0,0,0,5.91-3.21,8.75,8.75,0,0,0,1.14-1.77A12.87,12.87,0,0,1,439.27,273.67Zm2.2-5.95a6.21,6.21,0,0,1-4.93,1.29,6.06,6.06,0,0,1-5.05-6.22,7.52,7.52,0,0,1,1.24-3.83,5.33,5.33,0,0,1,3.81-2.4,7.07,7.07,0,0,1,5,1.26,6,6,0,0,1,2.39,5A6.64,6.64,0,0,1,441.47,267.72Z" transform="translate(-166.46 -200.01)"/><path class="cls-2" d="M512.39,278.6a9.91,9.91,0,0,0-9.34,6.72l-25.17,72.21-21.07-59.79c15.14-26.09,11.73-62.65-18.8-86.11a50.25,50.25,0,0,0-11-6.26c-46.7-19-91.69,15.37-91.69,59.79a66.13,66.13,0,0,0,1.71,15,54.83,54.83,0,0,0-17-2.4c-15.26,0-24.83,2.85-35.31,8.2a8.7,8.7,0,0,0-3.3,12.08,8.58,8.58,0,0,0,7.29,4.33,7.52,7.52,0,0,0,3.76-1c7.74-4,15.38-6,22.89-6,15.83,0,23.92,7.52,23.92,20.16v3H309c-24.14.23-37.92,12-37.92,30.19,0,17.76,13.55,31.09,35.19,31.09,14.58,0,26.08-4.33,33.26-13.21v1.7a10.59,10.59,0,0,0,21.18.23v-5.24l-.11-36V305.94c-.23-.23-.57-.46-.8-.69l-.11-.11a22.76,22.76,0,0,1-1.6-1.71,44.19,44.19,0,0,1-3.42-4.1,51.7,51.7,0,0,1-7.85-14.58,54.08,54.08,0,0,1-3.53-19.59c0-40.32,41.91-71,84.5-50.79a47.19,47.19,0,0,1,18.68,16c12.87,19,13.9,39.75,6.61,57a54.33,54.33,0,0,1-14.47,20.27l1.48,4,22,56.72a16.35,16.35,0,0,0,30.52,0l29.16-76.2A10,10,0,0,0,512.39,278.6ZM339.27,343.52c-1.14,10.93-13,19.13-28.47,19.13-12.08,0-19.37-5.92-19.37-14.92,0-9.68,6.61-13.44,20.73-13.44h27.11Z" transform="translate(-166.46 -200.01)"/><path class="cls-2" d="M633,289.41V368a10.83,10.83,0,0,1-10.83,10.83h0A10.83,10.83,0,0,1,611.37,368v-8.76c-6.78,13.94-19.4,20.16-35.79,20.35-23,0-36.73-14.7-36.73-38.63V289.41a10.83,10.83,0,0,1,10.83-10.83h0a10.83,10.83,0,0,1,10.83,10.83v45.5c0,15.07,8.85,24.3,23.36,24.3,17.33-.38,27.5-13.76,27.5-31.27V289.41a10.83,10.83,0,0,1,10.84-10.83h0A10.83,10.83,0,0,1,633,289.41Z" transform="translate(-166.46 -200.01)"/><path class="cls-2" d="M404.42,339h6.72V368a10.71,10.71,0,1,1-21.42,0V339h6.72v-8.77a63.18,63.18,0,0,1-23.57-6v-8.89a58.07,58.07,0,0,0,46.47,3.88l2.73,7.51a66.41,66.41,0,0,1-17.65,3.53Z" transform="translate(-166.46 -200.01)"/><path class="cls-1" d="M486.07,229.31h0a1.28,1.28,0,0,1-1.28,1.28h-4.12a1.28,1.28,0,0,0-1.28,1.28V236a1.27,1.27,0,0,1-1.27,1.27h0a1.27,1.27,0,0,1-1.28-1.27v-4.12a1.28,1.28,0,0,0-1.28-1.28h-4.12a1.27,1.27,0,0,1-1.27-1.28h0a1.27,1.27,0,0,1,1.27-1.27h4.12a1.28,1.28,0,0,0,1.28-1.28v-4.12a1.28,1.28,0,0,1,1.28-1.28h0a1.28,1.28,0,0,1,1.27,1.28v4.12a1.28,1.28,0,0,0,1.28,1.28h4.12A1.28,1.28,0,0,1,486.07,229.31Z" transform="translate(-166.46 -200.01)"/><path class="cls-2" d="M486.07,246.61h0a.75.75,0,0,1-.75.74h-2.4a.75.75,0,0,0-.75.75v2.4a.75.75,0,0,1-.74.75h0a.76.76,0,0,1-.75-.75v-2.4a.75.75,0,0,0-.74-.75h-2.41a.74.74,0,0,1-.74-.74h0a.75.75,0,0,1,.74-.75h2.41a.74.74,0,0,0,.74-.74v-2.41a.75.75,0,0,1,.75-.74h0a.74.74,0,0,1,.74.74v2.41a.74.74,0,0,0,.75.74h2.4A.76.76,0,0,1,486.07,246.61Z" transform="translate(-166.46 -200.01)"/><path class="cls-3" d="M505.47,238.57h0a1.29,1.29,0,0,1-1.29,1.29H500a1.29,1.29,0,0,0-1.29,1.29v4.17a1.29,1.29,0,0,1-1.29,1.29h0a1.29,1.29,0,0,1-1.29-1.29v-4.17a1.29,1.29,0,0,0-1.29-1.29h-4.17a1.29,1.29,0,0,1-1.29-1.29h0a1.29,1.29,0,0,1,1.29-1.29h4.17a1.29,1.29,0,0,0,1.29-1.29v-4.17a1.29,1.29,0,0,1,1.29-1.29h0a1.29,1.29,0,0,1,1.29,1.29V236a1.29,1.29,0,0,0,1.29,1.29h4.16A1.29,1.29,0,0,1,505.47,238.57Z" transform="translate(-166.46 -200.01)"/><path class="cls-2" d="M234.83,368.19v-1.62c-7.16,8.85-18.65,13.19-33.15,13.19-21.66,0-35.22-13.38-35.22-31.08,0-18.27,13.75-29.95,37.86-30.14h30.32v-3c0-12.62-8.1-20.16-23.92-20.16a48.81,48.81,0,0,0-22.61,6,8.59,8.59,0,0,1-11.36-3.3h0a8.62,8.62,0,0,1,3.44-12c10.39-5.39,20-8.18,35.24-8.18,25.81,0,40.31,13.18,40.5,35.22l.15,55.08a10.61,10.61,0,0,1-10.62,10.65h0A10.62,10.62,0,0,1,234.83,368.19Zm-.19-24.6v-9.23H207.52c-14.13,0-20.72,3.77-20.72,13.38,0,9,7.35,14.88,19.4,14.88C221.65,362.62,233.51,354.52,234.64,343.59Z" transform="translate(-166.46 -200.01)"/><path class="cls-2" d="M488.38,408.18v-2.92c-1.5,2-3.88,3-6.88,3-3.88,0-6.37-2.46-6.37-5.67s2.6-5.34,7-5.38h6.16v-1.17c0-2.75-1.71-4.42-5-4.42a10.19,10.19,0,0,0-6,2.17l-1.18-2a12.62,12.62,0,0,1,7.66-2.53c4.63,0,7.2,2.46,7.23,6.45l0,12.4Zm0-6.45v-2.28H482.5c-3.13,0-4.77,1-4.77,3.07S479.4,406,482,406C485.21,406,487.63,404.4,488.35,401.73Z" transform="translate(-166.46 -200.01)"/><path class="cls-2" d="M504.81,391.83c-3.88,0-6.66,2.85-6.66,7s2.78,7,6.66,7a7.36,7.36,0,0,0,5.81-2.42l1.6,1.64a9.42,9.42,0,0,1-7.52,3.24c-5.45,0-9.29-3.89-9.29-9.48s3.88-9.48,9.29-9.48a9.92,9.92,0,0,1,7.24,2.78L510.4,394A7.78,7.78,0,0,0,504.81,391.83Z" transform="translate(-166.46 -200.01)"/><path class="cls-2" d="M527.9,408.18v-2.92c-1.49,2-3.88,3-6.87,3-3.89,0-6.38-2.46-6.38-5.67s2.6-5.34,7-5.38h6.16v-1.17c0-2.75-1.71-4.42-5-4.42a10.19,10.19,0,0,0-5.95,2.17l-1.18-2a12.64,12.64,0,0,1,7.66-2.53c4.64,0,7.2,2.46,7.24,6.45l0,12.4Zm0-6.45v-2.28H522c-3.14,0-4.78,1-4.78,3.07s1.68,3.45,4.31,3.45C524.73,406,527.16,404.4,527.87,401.73Z" transform="translate(-166.46 -200.01)"/><path class="cls-2" d="M554.07,381.75v26.43h-2.78v-4a7.84,7.84,0,0,1-7.31,4.17c-5.34,0-9.05-3.95-9.05-9.55s3.71-9.47,9-9.47a7.86,7.86,0,0,1,7.34,4.2V381.75Zm-2.78,17.1c0-4.14-2.82-7.13-6.77-7.13s-6.81,3-6.81,7.13,2.82,7.09,6.81,7.09S551.29,403,551.29,398.85Z" transform="translate(-166.46 -200.01)"/><path class="cls-2" d="M577.19,399.84H561.87a6.63,6.63,0,0,0,6.81,6.13,7.86,7.86,0,0,0,5.8-2.38l1.54,1.6a10,10,0,0,1-7.56,3.1c-5.52,0-9.33-3.89-9.33-9.48s3.85-9.44,9.3-9.48C574.48,389.33,577.48,393.5,577.19,399.84Zm-2.49-2.21a5.91,5.91,0,0,0-6.27-6,6.33,6.33,0,0,0-6.56,6Z" transform="translate(-166.46 -200.01)"/><path class="cls-2" d="M613,396.64v11.54h-2.78V397.35c0-3.38-2-5.38-5.21-5.38-3.88.11-6.12,2.92-6.12,7v9.23h-2.82V397.35c0-3.38-1.92-5.38-5.2-5.38-3.85.11-6.16,2.92-6.16,7v9.23H582V389.44h2.75v4.24c1.24-2.92,3.77-4.31,7.16-4.35s6,1.78,6.73,4.88c1.18-3.27,3.81-4.84,7.41-4.88C610.4,389.33,613,392.08,613,396.64Z" transform="translate(-166.46 -200.01)"/><path class="cls-2" d="M618.79,415.2a5.94,5.94,0,0,1-3.95-1.35l1.17-2.21a4.48,4.48,0,0,0,2.64.89c1.46,0,2.67-.93,3.42-2.71l.78-1.78-7.77-18.6H618l6.23,15.61,6-15.61H633l-8.62,21.41C623.24,413.7,621.28,415.2,618.79,415.2Z" transform="translate(-166.46 -200.01)"/></svg>